<svg height="2558" width="720" xmlns="http://www.w3.org/2000/svg">
<rect height="2558" fill="#555" width="720"></rect>
<text fill="#7f7" font-family="Courier New" font-size="12" xml:space="preserve">
<tspan x="10" y="26">12 megabytes installed</tspan>
<tspan x="10" y="42"></tspan>
<tspan x="10" y="58">node_modules</tspan>
<tspan x="10" y="74">└─┬ firmata@0.16.0 </tspan>
<tspan x="10" y="90">  ├── browser-serialport@2.1.0 </tspan>
<tspan x="10" y="106">  ├── es6-shim@0.35.3 </tspan>
<tspan x="10" y="122">  └─┬ serialport@4.0.7 </tspan>
<tspan x="10" y="138">    ├── bindings@1.2.1 </tspan>
<tspan x="10" y="154">    ├─┬ commander@2.9.0 </tspan>
<tspan x="10" y="170">    │ └── graceful-readlink@1.0.1 </tspan>
<tspan x="10" y="186">    ├─┬ debug@2.6.4 </tspan>
<tspan x="10" y="202">    │ └── ms@0.7.3 </tspan>
<tspan x="10" y="218">    ├─┬ lie@3.1.1 </tspan>
<tspan x="10" y="234">    │ └── immediate@3.0.6 </tspan>
<tspan x="10" y="250">    ├── nan@2.6.2 </tspan>
<tspan x="10" y="266">    ├─┬ node-pre-gyp@0.6.32 </tspan>
<tspan x="10" y="282">    │ ├─┬ mkdirp@0.5.1 </tspan>
<tspan x="10" y="298">    │ │ └── minimist@0.0.8 </tspan>
<tspan x="10" y="314">    │ ├─┬ nopt@3.0.6 </tspan>
<tspan x="10" y="330">    │ │ └── abbrev@1.0.9 </tspan>
<tspan x="10" y="346">    │ ├─┬ npmlog@4.0.1 </tspan>
<tspan x="10" y="362">    │ │ ├─┬ are-we-there-yet@1.1.2 </tspan>
<tspan x="10" y="378">    │ │ │ ├── delegates@1.0.0 </tspan>
<tspan x="10" y="394">    │ │ │ └─┬ readable-stream@2.2.2 </tspan>
<tspan x="10" y="410">    │ │ │   ├── buffer-shims@1.0.0 </tspan>
<tspan x="10" y="426">    │ │ │   ├── core-util-is@1.0.2 </tspan>
<tspan x="10" y="442">    │ │ │   ├── inherits@2.0.3 </tspan>
<tspan x="10" y="458">    │ │ │   ├── isarray@1.0.0 </tspan>
<tspan x="10" y="474">    │ │ │   ├── process-nextick-args@1.0.7 </tspan>
<tspan x="10" y="490">    │ │ │   ├── string_decoder@0.10.31 </tspan>
<tspan x="10" y="506">    │ │ │   └── util-deprecate@1.0.2 </tspan>
<tspan x="10" y="522">    │ │ ├── console-control-strings@1.1.0 </tspan>
<tspan x="10" y="538">    │ │ ├─┬ gauge@2.7.2 </tspan>
<tspan x="10" y="554">    │ │ │ ├── aproba@1.0.4 </tspan>
<tspan x="10" y="570">    │ │ │ ├── has-unicode@2.0.1 </tspan>
<tspan x="10" y="586">    │ │ │ ├── object-assign@4.1.0 </tspan>
<tspan x="10" y="602">    │ │ │ ├── signal-exit@3.0.2 </tspan>
<tspan x="10" y="618">    │ │ │ ├─┬ string-width@1.0.2 </tspan>
<tspan x="10" y="634">    │ │ │ │ ├── code-point-at@1.1.0 </tspan>
<tspan x="10" y="650">    │ │ │ │ └─┬ is-fullwidth-code-point@1.0.0 </tspan>
<tspan x="10" y="666">    │ │ │ │   └── number-is-nan@1.0.1 </tspan>
<tspan x="10" y="682">    │ │ │ ├─┬ strip-ansi@3.0.1 </tspan>
<tspan x="10" y="698">    │ │ │ │ └── ansi-regex@2.0.0 </tspan>
<tspan x="10" y="714">    │ │ │ ├── supports-color@0.2.0 </tspan>
<tspan x="10" y="730">    │ │ │ └── wide-align@1.1.0 </tspan>
<tspan x="10" y="746">    │ │ └── set-blocking@2.0.0 </tspan>
<tspan x="10" y="762">    │ ├─┬ rc@1.1.6 </tspan>
<tspan x="10" y="778">    │ │ ├── deep-extend@0.4.1 </tspan>
<tspan x="10" y="794">    │ │ ├── ini@1.3.4 </tspan>
<tspan x="10" y="810">    │ │ ├── minimist@1.2.0 </tspan>
<tspan x="10" y="826">    │ │ └── strip-json-comments@1.0.4 </tspan>
<tspan x="10" y="842">    │ ├─┬ request@2.79.0 </tspan>
<tspan x="10" y="858">    │ │ ├── aws-sign2@0.6.0 </tspan>
<tspan x="10" y="874">    │ │ ├── aws4@1.5.0 </tspan>
<tspan x="10" y="890">    │ │ ├── caseless@0.11.0 </tspan>
<tspan x="10" y="906">    │ │ ├─┬ combined-stream@1.0.5 </tspan>
<tspan x="10" y="922">    │ │ │ └── delayed-stream@1.0.0 </tspan>
<tspan x="10" y="938">    │ │ ├── extend@3.0.0 </tspan>
<tspan x="10" y="954">    │ │ ├── forever-agent@0.6.1 </tspan>
<tspan x="10" y="970">    │ │ ├─┬ form-data@2.1.2 </tspan>
<tspan x="10" y="986">    │ │ │ └── asynckit@0.4.0 </tspan>
<tspan x="10" y="1002">    │ │ ├─┬ har-validator@2.0.6 </tspan>
<tspan x="10" y="1018">    │ │ │ ├─┬ chalk@1.1.3 </tspan>
<tspan x="10" y="1034">    │ │ │ │ ├── ansi-styles@2.2.1 </tspan>
<tspan x="10" y="1050">    │ │ │ │ ├── escape-string-regexp@1.0.5 </tspan>
<tspan x="10" y="1066">    │ │ │ │ ├─┬ has-ansi@2.0.0 </tspan>
<tspan x="10" y="1082">    │ │ │ │ │ └── ansi-regex@2.0.0 </tspan>
<tspan x="10" y="1098">    │ │ │ │ ├─┬ strip-ansi@3.0.1 </tspan>
<tspan x="10" y="1114">    │ │ │ │ │ └── ansi-regex@2.0.0 </tspan>
<tspan x="10" y="1130">    │ │ │ │ └── supports-color@2.0.0 </tspan>
<tspan x="10" y="1146">    │ │ │ ├─┬ is-my-json-valid@2.15.0 </tspan>
<tspan x="10" y="1162">    │ │ │ │ ├── generate-function@2.0.0 </tspan>
<tspan x="10" y="1178">    │ │ │ │ ├─┬ generate-object-property@1.2.0 </tspan>
<tspan x="10" y="1194">    │ │ │ │ │ └── is-property@1.0.2 </tspan>
<tspan x="10" y="1210">    │ │ │ │ ├── jsonpointer@4.0.0 </tspan>
<tspan x="10" y="1226">    │ │ │ │ └── xtend@4.0.1 </tspan>
<tspan x="10" y="1242">    │ │ │ └─┬ pinkie-promise@2.0.1 </tspan>
<tspan x="10" y="1258">    │ │ │   └── pinkie@2.0.4 </tspan>
<tspan x="10" y="1274">    │ │ ├─┬ hawk@3.1.3 </tspan>
<tspan x="10" y="1290">    │ │ │ ├── boom@2.10.1 </tspan>
<tspan x="10" y="1306">    │ │ │ ├── cryptiles@2.0.5 </tspan>
<tspan x="10" y="1322">    │ │ │ ├── hoek@2.16.3 </tspan>
<tspan x="10" y="1338">    │ │ │ └── sntp@1.0.9 </tspan>
<tspan x="10" y="1354">    │ │ ├─┬ http-signature@1.1.1 </tspan>
<tspan x="10" y="1370">    │ │ │ ├── assert-plus@0.2.0 </tspan>
<tspan x="10" y="1386">    │ │ │ ├─┬ jsprim@1.3.1 </tspan>
<tspan x="10" y="1402">    │ │ │ │ ├── extsprintf@1.0.2 </tspan>
<tspan x="10" y="1418">    │ │ │ │ ├── json-schema@0.2.3 </tspan>
<tspan x="10" y="1434">    │ │ │ │ └── verror@1.3.6 </tspan>
<tspan x="10" y="1450">    │ │ │ └─┬ sshpk@1.10.1 </tspan>
<tspan x="10" y="1466">    │ │ │   ├── asn1@0.2.3 </tspan>
<tspan x="10" y="1482">    │ │ │   ├── assert-plus@1.0.0 </tspan>
<tspan x="10" y="1498">    │ │ │   ├── bcrypt-pbkdf@1.0.0 </tspan>
<tspan x="10" y="1514">    │ │ │   ├── dashdash@1.14.1 </tspan>
<tspan x="10" y="1530">    │ │ │   ├── ecc-jsbn@0.1.1 </tspan>
<tspan x="10" y="1546">    │ │ │   ├── getpass@0.1.6 </tspan>
<tspan x="10" y="1562">    │ │ │   ├── jodid25519@1.0.2 </tspan>
<tspan x="10" y="1578">    │ │ │   ├── jsbn@0.1.0 </tspan>
<tspan x="10" y="1594">    │ │ │   └── tweetnacl@0.14.4 </tspan>
<tspan x="10" y="1610">    │ │ ├── is-typedarray@1.0.0 </tspan>
<tspan x="10" y="1626">    │ │ ├── isstream@0.1.2 </tspan>
<tspan x="10" y="1642">    │ │ ├── json-stringify-safe@5.0.1 </tspan>
<tspan x="10" y="1658">    │ │ ├─┬ mime-types@2.1.13 </tspan>
<tspan x="10" y="1674">    │ │ │ └── mime-db@1.25.0 </tspan>
<tspan x="10" y="1690">    │ │ ├── oauth-sign@0.8.2 </tspan>
<tspan x="10" y="1706">    │ │ ├── qs@6.3.0 </tspan>
<tspan x="10" y="1722">    │ │ ├── stringstream@0.0.5 </tspan>
<tspan x="10" y="1738">    │ │ ├─┬ tough-cookie@2.3.2 </tspan>
<tspan x="10" y="1754">    │ │ │ └── punycode@1.4.1 </tspan>
<tspan x="10" y="1770">    │ │ ├── tunnel-agent@0.4.3 </tspan>
<tspan x="10" y="1786">    │ │ └── uuid@3.0.1 </tspan>
<tspan x="10" y="1802">    │ ├─┬ rimraf@2.5.4 </tspan>
<tspan x="10" y="1818">    │ │ └─┬ glob@7.1.1 </tspan>
<tspan x="10" y="1834">    │ │   ├── fs.realpath@1.0.0 </tspan>
<tspan x="10" y="1850">    │ │   ├─┬ inflight@1.0.6 </tspan>
<tspan x="10" y="1866">    │ │   │ └── wrappy@1.0.2 </tspan>
<tspan x="10" y="1882">    │ │   ├── inherits@2.0.3 </tspan>
<tspan x="10" y="1898">    │ │   ├─┬ minimatch@3.0.3 </tspan>
<tspan x="10" y="1914">    │ │   │ └─┬ brace-expansion@1.1.6 </tspan>
<tspan x="10" y="1930">    │ │   │   ├── balanced-match@0.4.2 </tspan>
<tspan x="10" y="1946">    │ │   │   └── concat-map@0.0.1 </tspan>
<tspan x="10" y="1962">    │ │   ├─┬ once@1.4.0 </tspan>
<tspan x="10" y="1978">    │ │   │ └── wrappy@1.0.2 </tspan>
<tspan x="10" y="1994">    │ │   └── path-is-absolute@1.0.1 </tspan>
<tspan x="10" y="2010">    │ ├── semver@5.3.0 </tspan>
<tspan x="10" y="2026">    │ ├─┬ tar@2.2.1 </tspan>
<tspan x="10" y="2042">    │ │ ├── block-stream@0.0.9 </tspan>
<tspan x="10" y="2058">    │ │ ├─┬ fstream@1.0.10 </tspan>
<tspan x="10" y="2074">    │ │ │ └── graceful-fs@4.1.11 </tspan>
<tspan x="10" y="2090">    │ │ └── inherits@2.0.3 </tspan>
<tspan x="10" y="2106">    │ └─┬ tar-pack@3.3.0 </tspan>
<tspan x="10" y="2122">    │   ├─┬ debug@2.2.0 </tspan>
<tspan x="10" y="2138">    │   │ └── ms@0.7.1 </tspan>
<tspan x="10" y="2154">    │   ├─┬ fstream@1.0.10 </tspan>
<tspan x="10" y="2170">    │   │ ├── graceful-fs@4.1.11 </tspan>
<tspan x="10" y="2186">    │   │ └── inherits@2.0.3 </tspan>
<tspan x="10" y="2202">    │   ├─┬ fstream-ignore@1.0.5 </tspan>
<tspan x="10" y="2218">    │   │ ├── inherits@2.0.3 </tspan>
<tspan x="10" y="2234">    │   │ └─┬ minimatch@3.0.3 </tspan>
<tspan x="10" y="2250">    │   │   └─┬ brace-expansion@1.1.6 </tspan>
<tspan x="10" y="2266">    │   │     ├── balanced-match@0.4.2 </tspan>
<tspan x="10" y="2282">    │   │     └── concat-map@0.0.1 </tspan>
<tspan x="10" y="2298">    │   ├─┬ once@1.3.3 </tspan>
<tspan x="10" y="2314">    │   │ └── wrappy@1.0.2 </tspan>
<tspan x="10" y="2330">    │   ├─┬ readable-stream@2.1.5 </tspan>
<tspan x="10" y="2346">    │   │ ├── buffer-shims@1.0.0 </tspan>
<tspan x="10" y="2362">    │   │ ├── core-util-is@1.0.2 </tspan>
<tspan x="10" y="2378">    │   │ ├── inherits@2.0.3 </tspan>
<tspan x="10" y="2394">    │   │ ├── isarray@1.0.0 </tspan>
<tspan x="10" y="2410">    │   │ ├── process-nextick-args@1.0.7 </tspan>
<tspan x="10" y="2426">    │   │ ├── string_decoder@0.10.31 </tspan>
<tspan x="10" y="2442">    │   │ └── util-deprecate@1.0.2 </tspan>
<tspan x="10" y="2458">    │   └── uid-number@0.0.6 </tspan>
<tspan x="10" y="2474">    └─┬ object.assign@4.0.4 </tspan>
<tspan x="10" y="2490">      ├─┬ define-properties@1.1.2 </tspan>
<tspan x="10" y="2506">      │ └── foreach@2.0.5 </tspan>
<tspan x="10" y="2522">      ├── function-bind@1.1.0 </tspan>
<tspan x="10" y="2538">      └── object-keys@1.0.11</tspan>
</text>
</svg>
